<svg width="78" height="78" viewBox="0 0 78 78" fill="none" xmlns="http://www.w3.org/2000/svg">
<g filter="url(#filter0_d_123_1704)">
<path d="M39 65.25C35.5528 65.25 32.1394 64.571 28.9546 63.2518C25.7698 61.9327 22.876 59.9991 20.4384 57.5616C18.0009 55.124 16.0673 52.2302 14.7482 49.0454C13.429 45.8606 12.75 42.4472 12.75 39C12.75 35.5528 13.429 32.1394 14.7482 28.9546C16.0674 25.7698 18.0009 22.876 20.4384 20.4384C22.876 18.0009 25.7698 16.0673 28.9546 14.7482C32.1394 13.429 35.5528 12.75 39 12.75C42.4472 12.75 45.8606 13.429 49.0454 14.7482C52.2302 16.0674 55.124 18.0009 57.5616 20.4385C59.9991 22.876 61.9327 25.7698 63.2518 28.9546C64.571 32.1394 65.25 35.5528 65.25 39C65.25 42.4472 64.571 45.8607 63.2518 49.0454C61.9326 52.2302 59.9991 55.124 57.5615 57.5616C55.124 59.9991 52.2302 61.9327 49.0454 63.2518C45.8606 64.571 42.4472 65.25 39 65.25L39 65.25Z" stroke="#D51EE4" stroke-width="4" stroke-linecap="round"/>
</g>
<g filter="url(#filter1_d_123_1704)">
<path d="M30.25 30.25L47.75 47.75" stroke="#D51EE4" stroke-width="4" stroke-linecap="round"/>
</g>
<g filter="url(#filter2_d_123_1704)">
<path d="M47.75 30.25L30.25 47.75" stroke="#D51EE4" stroke-width="4" stroke-linecap="round"/>
</g>
<defs>
<filter id="filter0_d_123_1704" x="0.75" y="0.75" width="76.5" height="76.5" filterUnits="userSpaceOnUse" color-interpolation-filters="sRGB">
<feFlood flood-opacity="0" result="BackgroundImageFix"/>
<feColorMatrix in="SourceAlpha" type="matrix" values="0 0 0 0 0 0 0 0 0 0 0 0 0 0 0 0 0 0 127 0" result="hardAlpha"/>
<feOffset/>
<feGaussianBlur stdDeviation="5"/>
<feComposite in2="hardAlpha" operator="out"/>
<feColorMatrix type="matrix" values="0 0 0 0 0.835294 0 0 0 0 0.117647 0 0 0 0 0.894118 0 0 0 1 0"/>
<feBlend mode="normal" in2="BackgroundImageFix" result="effect1_dropShadow_123_1704"/>
<feBlend mode="normal" in="SourceGraphic" in2="effect1_dropShadow_123_1704" result="shape"/>
</filter>
<filter id="filter1_d_123_1704" x="18.25" y="18.25" width="41.5" height="41.5" filterUnits="userSpaceOnUse" color-interpolation-filters="sRGB">
<feFlood flood-opacity="0" result="BackgroundImageFix"/>
<feColorMatrix in="SourceAlpha" type="matrix" values="0 0 0 0 0 0 0 0 0 0 0 0 0 0 0 0 0 0 127 0" result="hardAlpha"/>
<feOffset/>
<feGaussianBlur stdDeviation="5"/>
<feComposite in2="hardAlpha" operator="out"/>
<feColorMatrix type="matrix" values="0 0 0 0 0.835294 0 0 0 0 0.117647 0 0 0 0 0.894118 0 0 0 1 0"/>
<feBlend mode="normal" in2="BackgroundImageFix" result="effect1_dropShadow_123_1704"/>
<feBlend mode="normal" in="SourceGraphic" in2="effect1_dropShadow_123_1704" result="shape"/>
</filter>
<filter id="filter2_d_123_1704" x="18.25" y="22.25" width="41.5" height="41.5" filterUnits="userSpaceOnUse" color-interpolation-filters="sRGB">
<feFlood flood-opacity="0" result="BackgroundImageFix"/>
<feColorMatrix in="SourceAlpha" type="matrix" values="0 0 0 0 0 0 0 0 0 0 0 0 0 0 0 0 0 0 127 0" result="hardAlpha"/>
<feOffset dy="4"/>
<feGaussianBlur stdDeviation="5"/>
<feComposite in2="hardAlpha" operator="out"/>
<feColorMatrix type="matrix" values="0 0 0 0 0.835294 0 0 0 0 0.117647 0 0 0 0 0.894118 0 0 0 1 0"/>
<feBlend mode="normal" in2="BackgroundImageFix" result="effect1_dropShadow_123_1704"/>
<feBlend mode="normal" in="SourceGraphic" in2="effect1_dropShadow_123_1704" result="shape"/>
</filter>
</defs>
</svg>
