<svg width="55" height="57" viewBox="0 0 55 57" fill="none" xmlns="http://www.w3.org/2000/svg">
<g filter="url(#filter0_d_32_463)">
<mask id="path-1-inside-1_32_463" fill="white">
<path d="M45 42.909C45 41.0586 44.5473 39.2263 43.6679 37.5167C42.7884 35.8071 41.4994 34.2537 39.8744 32.9452C38.2493 31.6368 36.3202 30.5989 34.197 29.8907C32.0738 29.1826 29.7981 28.8181 27.5 28.8181C25.2019 28.8181 22.9262 29.1826 20.803 29.8907C18.6798 30.5989 16.7507 31.6368 15.1256 32.9452C13.5006 34.2537 12.2116 35.8071 11.3321 37.5167C10.4527 39.2263 10 41.0586 10 42.909L27.5 42.909H45Z"/>
</mask>
<path d="M45 42.909C45 41.0586 44.5473 39.2263 43.6679 37.5167C42.7884 35.8071 41.4994 34.2537 39.8744 32.9452C38.2493 31.6368 36.3202 30.5989 34.197 29.8907C32.0738 29.1826 29.7981 28.8181 27.5 28.8181C25.2019 28.8181 22.9262 29.1826 20.803 29.8907C18.6798 30.5989 16.7507 31.6368 15.1256 32.9452C13.5006 34.2537 12.2116 35.8071 11.3321 37.5167C10.4527 39.2263 10 41.0586 10 42.909L27.5 42.909H45Z" stroke="#D51EE4" stroke-width="4" shape-rendering="crispEdges" mask="url(#path-1-inside-1_32_463)"/>
</g>
<g filter="url(#filter1_d_32_463)">
<path d="M39 17.3636C39 22.9998 33.9431 27.7273 27.5 27.7273C21.0569 27.7273 16 22.9998 16 17.3636C16 11.7275 21.0569 7 27.5 7C33.9431 7 39 11.7275 39 17.3636Z" stroke="#D51EE4" stroke-width="2" shape-rendering="crispEdges"/>
</g>
<defs>
<filter id="filter0_d_32_463" x="0" y="22.8181" width="55" height="34.0908" filterUnits="userSpaceOnUse" color-interpolation-filters="sRGB">
<feFlood flood-opacity="0" result="BackgroundImageFix"/>
<feColorMatrix in="SourceAlpha" type="matrix" values="0 0 0 0 0 0 0 0 0 0 0 0 0 0 0 0 0 0 127 0" result="hardAlpha"/>
<feOffset dy="4"/>
<feGaussianBlur stdDeviation="5"/>
<feComposite in2="hardAlpha" operator="out"/>
<feColorMatrix type="matrix" values="0 0 0 0 0.835294 0 0 0 0 0.117647 0 0 0 0 0.894118 0 0 0 1 0"/>
<feBlend mode="normal" in2="BackgroundImageFix" result="effect1_dropShadow_32_463"/>
<feBlend mode="normal" in="SourceGraphic" in2="effect1_dropShadow_32_463" result="shape"/>
</filter>
<filter id="filter1_d_32_463" x="5" y="0" width="45" height="42.7273" filterUnits="userSpaceOnUse" color-interpolation-filters="sRGB">
<feFlood flood-opacity="0" result="BackgroundImageFix"/>
<feColorMatrix in="SourceAlpha" type="matrix" values="0 0 0 0 0 0 0 0 0 0 0 0 0 0 0 0 0 0 127 0" result="hardAlpha"/>
<feOffset dy="4"/>
<feGaussianBlur stdDeviation="5"/>
<feComposite in2="hardAlpha" operator="out"/>
<feColorMatrix type="matrix" values="0 0 0 0 0.835294 0 0 0 0 0.117647 0 0 0 0 0.894118 0 0 0 1 0"/>
<feBlend mode="normal" in2="BackgroundImageFix" result="effect1_dropShadow_32_463"/>
<feBlend mode="normal" in="SourceGraphic" in2="effect1_dropShadow_32_463" result="shape"/>
</filter>
</defs>
</svg>
